<?xml version="1.0" encoding="utf-8"?>
<svg width="400pt" height="400pt" version="1.1" viewBox="0 0 400 400" xmlns="http://www.w3.org/2000/svg">
  <path d="M 199.996 0.009 C 89.536 0.009 0 95.631 0 213.596 C 0 278.161 26.865 335.989 69.263 375.153 C 53.948 340.255 61.637 288.911 61.637 288.911 C 61.637 288.911 56.621 288.911 40.13 306.522 C 40.058 306.721 39.327 216.266 101.064 164.157 C 103.932 99.048 157.741 50.007 157.741 50.007 L 183.289 104.555 C 195.815 92.764 205.099 82.521 224.46 72.241 C 236.662 92.145 235.359 149.649 235.359 149.649 C 253.204 162.75 266.312 181.969 272.524 204.127 C 276.519 219.116 284.884 232.353 296.4 241.928 C 318.927 260.936 342.869 278.946 342.869 278.946 C 342.869 278.946 331.388 318.79 294.072 318.79 C 256.762 318.79 210.105 308.078 210.105 308.078 C 210.105 308.078 211.559 363.424 297.597 400 C 358.688 363.445 400 293.687 400 213.587 C 400 95.623 310.456 0 199.991 0 L 199.996 0.009 Z" fill="#fff" style=""/>
</svg>