<?xml version="1.0" encoding="utf-8"?>
<svg width="1000pt" height="400pt" version="1.1" viewBox="0 0 1000 400" xmlns="http://www.w3.org/2000/svg">
  <path d="M 508.111 144.713 L 465.346 265.879 L 460.764 265.879 L 418 144.713 L 422.921 144.713 L 457.031 241.612 Q 458.219 244.836 459.237 247.976 Q 460.255 251.115 461.274 254.085 Q 462.292 257.055 463.14 259.6 Q 463.989 257.055 464.837 254.339 Q 465.686 251.624 466.789 248.485 Q 467.892 245.345 469.249 241.612 L 503.189 144.713 Z M 606.866 223.115 Q 606.866 238.218 601.52 248.061 Q 596.174 257.903 586.756 262.74 Q 577.338 267.576 564.78 267.576 Q 544.925 267.576 534.064 256.206 Q 523.203 244.836 523.203 222.775 L 523.203 144.713 L 527.785 144.713 L 527.785 222.436 Q 527.785 242.8 537.543 253.067 Q 547.301 263.334 564.95 263.334 Q 576.32 263.334 584.635 259.006 Q 592.95 254.679 597.617 246.024 Q 602.284 237.369 602.284 224.472 L 602.284 144.713 L 606.866 144.713 Z M 638.254 265.879 L 638.254 144.713 L 642.836 144.713 L 642.836 261.637 L 699.516 261.637 L 699.516 265.879 Z M 746.006 144.713 Q 765.182 144.713 775.28 152.435 Q 785.377 160.156 785.377 177.805 Q 785.377 190.872 780.286 198.932 Q 775.195 206.993 765.946 210.557 Q 756.697 214.121 743.8 214.121 L 723.776 214.121 L 723.776 265.879 L 719.194 265.879 L 719.194 144.713 Z M 745.328 148.956 L 723.776 148.956 L 723.776 209.878 L 743.291 209.878 Q 754.491 209.878 762.891 207.078 Q 771.292 204.278 775.958 197.32 Q 780.625 190.363 780.625 177.974 Q 780.625 162.532 772.055 155.744 Q 763.485 148.956 745.328 148.956 Z M 872.434 265.879 L 810.833 265.879 L 810.833 144.713 L 872.434 144.713 L 872.434 148.956 L 815.415 148.956 L 815.415 199.866 L 869.209 199.866 L 869.209 204.108 L 815.415 204.108 L 815.415 261.637 L 872.434 261.637 Z M 960.339 235.333 Q 960.339 246.194 955.163 253.406 Q 949.988 260.618 941.248 264.097 Q 932.508 267.576 921.987 267.576 Q 914.69 267.576 909.175 266.812 Q 903.659 266.049 899.332 264.946 Q 895.005 263.843 891.102 262.655 L 891.102 257.733 Q 897.55 260.109 905.102 261.721 Q 912.654 263.334 922.326 263.334 Q 931.321 263.334 938.872 260.364 Q 946.424 257.394 951.006 251.2 Q 955.588 245.006 955.588 235.163 Q 955.588 226.678 951.769 221.502 Q 947.951 216.327 940.909 212.848 Q 933.866 209.369 924.023 206.145 Q 914.86 202.92 907.732 199.272 Q 900.605 195.623 896.532 189.599 Q 892.459 183.575 892.459 173.562 Q 892.459 163.38 897.296 156.592 Q 902.132 149.804 910.363 146.41 Q 918.593 143.016 928.605 143.016 Q 936.242 143.016 943.369 144.459 Q 950.497 145.901 957.454 149.295 L 955.588 153.198 Q 948.291 149.804 941.503 148.531 Q 934.715 147.259 928.266 147.259 Q 919.951 147.259 912.823 149.974 Q 905.696 152.689 901.453 158.374 Q 897.211 164.059 897.211 173.223 Q 897.211 182.387 901.199 187.817 Q 905.187 193.247 911.89 196.387 Q 918.593 199.526 926.739 202.242 Q 936.921 205.466 944.472 209.369 Q 952.024 213.272 956.182 219.296 Q 960.339 225.321 960.339 235.333 Z" style="fill: rgb(255, 255, 255); white-space: pre;"/>
  <path d="M 208.996 0.009 C 93.565 0.009 0 95.631 0 213.596 C 0 278.161 28.074 335.989 72.38 375.153 C 56.376 340.255 64.41 288.911 64.41 288.911 C 64.41 288.911 59.169 288.911 41.936 306.522 C 41.861 306.721 41.096 216.266 105.612 164.157 C 108.609 99.048 164.84 50.007 164.84 50.007 L 191.537 104.555 C 204.627 92.764 214.328 82.521 234.561 72.241 C 247.312 92.145 245.95 149.649 245.95 149.649 C 264.598 162.75 278.296 181.969 284.788 204.127 C 288.963 219.116 297.704 232.353 309.738 241.928 C 333.279 260.936 358.298 278.946 358.298 278.946 C 358.298 278.946 346.301 318.79 307.306 318.79 C 268.316 318.79 219.56 308.078 219.56 308.078 C 219.56 308.078 221.079 363.424 310.989 400 C 374.829 363.445 418 293.687 418 213.587 C 418 95.623 324.427 0 208.991 0 L 208.996 0.009 Z" fill="#fff" style=""/>
</svg>